<?xml version="1.0" encoding="utf-8"?>
<!-- Generator: Adobe Illustrator 25.0.1, SVG Export Plug-In . SVG Version: 6.00 Build 0)  -->
<svg version="1.1" xmlns="http://www.w3.org/2000/svg" xmlns:xlink="http://www.w3.org/1999/xlink" x="0px" y="0px"
	 viewBox="0 0 1000 1000" style="enable-background:new 0 0 1000 1000;" xml:space="preserve">
<style type="text/css">
	.st0{fill:none;stroke:#50545E;stroke-width:1.1587;stroke-linecap:round;stroke-linejoin:round;stroke-miterlimit:10;}
	.st1{fill:#FFFFFF;stroke:#50545E;stroke-width:1.1587;stroke-linecap:round;stroke-linejoin:round;stroke-miterlimit:10;}
	.st2{fill:#50545E;}
	.st3{opacity:0.8;}
	.st4{fill:none;stroke:#50545E;stroke-width:0.5794;stroke-linecap:round;stroke-linejoin:round;stroke-miterlimit:10;}
	.st5{fill:#50545E;stroke:#50545E;stroke-width:2.3175;stroke-linecap:round;stroke-linejoin:round;stroke-miterlimit:10;}
</style>
<g id="_x2D_">
</g>
<g id="Окна_x2C__двери">
	<polyline class="st0" points="421.95,265.48 333.93,265.48 333.93,271.76 421.95,271.76 	"/>
	<polyline class="st0" points="333.93,353.5 351.22,351.93 367.46,346.69 382.65,338.31 396.28,327.83 406.76,314.2 415.14,299.01 
		420.38,282.77 421.95,265.48 	"/>
	<polyline class="st0" points="467.53,500.73 467.53,400.66 473.82,400.66 473.82,500.73 	"/>
	<polyline class="st0" points="373.75,400.66 375.32,420.04 381.08,438.91 390.51,456.2 403.09,471.39 418.28,483.97 435.57,492.87 
		454.44,498.64 473.82,500.73 	"/>
	<path class="st0" d="M709.08,269.14h-100.6c0,0-2.39,3.9,0,6.29h100.6"/>
	<polyline class="st0" points="608.48,369.22 628.39,367.65 647.25,361.88 664.54,352.45 679.74,339.88 692.31,324.68 
		701.22,307.39 706.98,288.53 709.08,269.14 	"/>
	<line class="st0" x1="421.95" y1="265.48" x2="421.95" y2="271.76"/>
	<line class="st0" x1="473.82" y1="500.73" x2="467.53" y2="500.73"/>
	<line class="st0" x1="709.08" y1="269.14" x2="709.08" y2="275.43"/>
	<polyline class="st0" points="548.22,113.01 554.51,113.01 554.51,0.35 548.22,0.35 548.22,113.01 	"/>
	<polyline class="st0" points="441.86,113.01 443.43,93.62 448.67,74.76 456.53,56.94 468.06,40.7 481.68,27.08 497.92,15.55 
		515.74,7.17 534.6,2.45 554.51,0.35 	"/>
	<g>
		<line class="st0" x1="143.55" y1="940.63" x2="887.01" y2="940.63"/>
		<line class="st0" x1="143.55" y1="927.89" x2="887.01" y2="927.89"/>
		<line class="st0" x1="143.55" y1="918.78" x2="887.01" y2="918.78"/>
		<line class="st0" x1="143.55" y1="895.21" x2="887.01" y2="895.21"/>
	</g>
	<g>
		<polyline class="st0" points="642.1,940.58 642.1,1000.35 754.74,1000.35 754.74,940.58 		"/>
		<line class="st0" x1="647.73" y1="1000.35" x2="647.73" y2="940.58"/>
		<line class="st0" x1="749.11" y1="1000.35" x2="749.11" y2="940.58"/>
		<line class="st0" x1="745.17" y1="994.72" x2="745.17" y2="940.58"/>
		<line class="st0" x1="651.67" y1="994.72" x2="651.67" y2="940.58"/>
		<rect x="647.73" y="950.5" class="st0" width="101.38" height="3.94"/>
		<rect x="647.73" y="973.67" class="st0" width="101.38" height="3.94"/>
		<rect x="647.73" y="990.78" class="st0" width="101.38" height="3.94"/>
	</g>
</g>
<g id="цвет">
</g>
<g id="Шахты">
	<g>
		<rect x="106.58" y="475.56" class="st1" width="100.56" height="53.67"/>
		<rect x="112.06" y="480.97" class="st1" width="10.51" height="42.85"/>
		<rect x="190.68" y="480.97" class="st1" width="10.97" height="42.85"/>
		<rect x="128.06" y="480.97" class="st1" width="57.14" height="42.85"/>
	</g>
</g>
<g id="Пунктир">
</g>
<g id="Перегородки">
	<rect x="81.95" y="201.24" class="st2" width="149.32" height="4.19"/>
	<rect x="106.37" y="201.99" class="st2" width="4.14" height="273.03"/>
	<rect x="84.01" y="388.8" class="st2" width="24.77" height="4.13"/>
	<rect x="207.38" y="474.13" class="st2" width="128.5" height="10.67"/>
	<rect x="82.51" y="517.15" class="st2" width="25.08" height="12.1"/>
	<rect x="322.09" y="359.9" class="st2" width="13.42" height="123.17"/>
	<rect x="330" y="389.83" class="st2" width="37.5" height="11.33"/>
	<rect x="226.79" y="188.91" class="st2" width="4.47" height="16.51"/>
	<rect x="322.78" y="186.16" class="st2" width="11.01" height="72.94"/>
	<rect x="475.99" y="389.83" class="st2" width="131.2" height="9.17"/>
	<rect x="597.1" y="133.86" class="st2" width="11.01" height="130.28"/>
	<rect x="517.28" y="394.42" class="st2" width="12.84" height="506.43"/>
	<rect x="598.01" y="375.16" class="st2" width="9.17" height="23.85"/>
</g>
<g id="Мебель">
</g>
<g id="Значки_коляска">
</g>
<g id="Сантехника">
	<g>
		<g class="st3">
			<path class="st4" d="M110.52,313.89h39.63c7.53,0,14.38,6.47,17.51,16.57l0.98,3.15c3.66,11.83,3.58,25.44-0.24,37.16
				c-3.2,9.83-9.95,16.09-17.36,16.09h-40.52V313.89z"/>
			<path class="st4" d="M124.73,345.95V320.3h24.38c5.87,0,11.19,5.34,13.63,13.66l0.76,2.6c2.86,9.75,2.79,20.97-0.18,30.63
				c-2.49,8.1-7.75,13.27-13.51,13.27h-25.08v-20.73"/>
			<path class="st4" d="M117.54,355.4l-1.63,0.13c-2.59,0.21-5.04-1.74-5.37-4.58c-0.02-0.19-0.03-0.38-0.03-0.57
				c0-0.19,0.01-0.38,0.03-0.57c0.33-2.84,2.78-4.8,5.37-4.58l28.06,2.31c0.9,0,1.62,0.8,1.62,1.79v2.11c0,0.99-0.72,1.79-1.62,1.79
				l-14.44,1.19"/>
			<path class="st4" d="M131.24,360.81l1.12-1.87c0.69-1.14,0.32-2.65-0.83-3.33l-14.14-8.52c-1.15-0.7-2.66-0.32-3.34,0.83
				l-1.12,1.86c-0.69,1.14-0.32,2.65,0.83,3.34l14.15,8.51C129.04,362.32,130.55,361.95,131.24,360.81z"/>
			<path class="st4" d="M155.51,354.03c2.01,0,3.64-1.63,3.64-3.65c0-2.01-1.63-3.64-3.64-3.64c-2.02,0-3.65,1.63-3.65,3.64
				C151.86,352.39,153.49,354.03,155.51,354.03z"/>
		</g>
		<g class="st3">
			<line class="st4" x1="120.97" y1="432.06" x2="120.97" y2="423.18"/>
			<path class="st4" d="M120.97,419.24v-18.35c0-2.51,2.19-4.53,4.89-4.53h142c9.69,0,19.04,3.34,26.22,9.37
				c17.03,14.32,17.03,39.1,0,53.41c-7.17,6.04-16.53,9.38-26.22,9.38h-142c-2.7,0-4.89-2.03-4.89-4.54V442.5"/>
			<rect x="110.52" y="389.87" class="st4" width="206.77" height="85.14"/>
			<path class="st4" d="M152.66,432.44c0-2.41-1.95-4.36-4.36-4.36c-2.4,0-4.36,1.95-4.36,4.36c0,2.41,1.95,4.36,4.36,4.36
				C150.71,436.8,152.66,434.85,152.66,432.44z"/>
			<path class="st4" d="M110.52,423.18v-3.93h6.41h0.44h10.13c0,0,2.09,0.07,2.09,1.97c0,1.89-2.09,1.97-2.09,1.97h-10.13h-0.44
				h-2.37"/>
			<g>
				<path class="st4" d="M116.03,439.53l-1.28,0.11c-2.03,0.16-3.94-1.36-4.2-3.59c-0.02-0.15-0.03-0.3-0.03-0.45
					c0-0.15,0.01-0.3,0.03-0.45c0.26-2.23,2.18-3.75,4.2-3.6l21.99,1.81c0.7,0,1.27,0.63,1.27,1.4v1.65c0,0.78-0.57,1.4-1.27,1.4
					l-11.14,0.92"/>
				<path class="st4" d="M126.32,442.88l0.39-0.64c0.69-1.15,0.32-2.65-0.83-3.34l-8.82-5.32c-1.15-0.69-2.65-0.32-3.34,0.82
					l-0.39,0.66c-0.69,1.14-0.31,2.64,0.83,3.33l8.83,5.31C124.12,444.4,125.63,444.03,126.32,442.88z"/>
				<path class="st4" d="M115.85,439.41c-0.17,3.1-0.49,7.13-1.03,8.21c-0.77,1.5-2.9,0.84-2.9,0.84h-1.36v-25.75h1.36
					c0,0,2.14-0.66,2.9,0.84c0.54,1.06,0.86,5,1.03,8.08"/>
			</g>
			<path class="st4" d="M120.97,417.54c1.29-2.3,3.75-3.85,6.56-3.85c4.15,0,7.52,3.36,7.52,7.52c0,4.15-3.37,7.52-7.52,7.52
				c-2.82,0-5.28-1.55-6.56-3.85"/>
		</g>
		<g class="st3">
			<path class="st4" d="M124.83,238.22h40.51c4.42,0,8.78,1.11,12.7,3.34c5.58,3.19,11.53,9.33,11.53,20.98
				c0,11.66-5.95,17.79-11.53,20.99c-3.91,2.24-8.28,3.34-12.7,3.34h-40.51"/>
			<path class="st4" d="M138.72,245.76c0-2.06,1.55-3.73,3.47-3.73h21.83c3.96,0,7.9,0.93,11.42,2.82
				c5.02,2.69,10.36,7.87,10.36,17.7c0,9.82-5.35,15-10.36,17.69c-3.52,1.89-7.45,2.82-11.42,2.82h-21.83
				c-1.92,0-3.47-1.66-3.47-3.73V245.76z"/>
			<path class="st4" d="M163.69,257.61c0-0.61,0.45-1.1,1.02-1.1h6.41c1.17,0,2.32,0.27,3.36,0.83c1.47,0.79,3.04,2.31,3.04,5.19
				c0,2.89-1.57,4.42-3.04,5.2c-1.04,0.56-2.19,0.83-3.36,0.83h-6.41c-0.56,0-1.02-0.49-1.02-1.09V257.61z"/>
			<path class="st4" d="M134.52,255.29c1.04,0,1.88-0.91,1.88-2.03c0-1.11-0.84-2.02-1.88-2.02c-1.04,0-1.88,0.91-1.88,2.02
				C132.64,254.39,133.49,255.29,134.52,255.29z"/>
			<path class="st4" d="M134.52,273.84c1.04,0,1.88-0.91,1.88-2.03c0-1.11-0.84-2.02-1.88-2.02c-1.04,0-1.88,0.91-1.88,2.02
				C132.64,272.93,133.49,273.84,134.52,273.84z"/>
			<path class="st4" d="M129.57,284.43v-43.79c0-1.34-1.09-2.43-2.43-2.43h-14.19c-1.34,0-2.43,1.09-2.43,2.43v43.79
				c0,1.35,1.09,2.43,2.43,2.43h14.19C128.48,286.87,129.57,285.78,129.57,284.43z"/>
			<path class="st4" d="M120.04,266.19c2.02,0,3.65-1.64,3.65-3.65c0-2.01-1.63-3.65-3.65-3.65c-2.02,0-3.65,1.63-3.65,3.65
				C116.39,264.56,118.02,266.19,120.04,266.19z"/>
		</g>
	</g>
	<g>
		<path class="st4" d="M148.13,778.12L148.13,778.12c0.92,0,1.67-1.29,1.67-2.88v-27.16c0-1.58-0.75-2.88-1.67-2.88"/>
		<rect x="86.2" y="741.03" class="st4" width="61.9" height="41.27"/>
		<path class="st4" d="M91.36,750.37v22.59c0,2.85,2.31,5.16,5.16,5.16h41.27c2.85,0,5.16-2.31,5.16-5.16v-22.59
			c0-2.85-2.31-5.16-5.16-5.16H96.51C93.67,745.2,91.36,747.52,91.36,750.37z"/>
		<path class="st4" d="M106.96,751.48c-5.63,0-10.19,4.56-10.19,10.19c0,5.63,4.56,10.19,10.19,10.19c5.63,0,10.19-4.56,10.19-10.19
			C117.15,756.04,112.59,751.48,106.96,751.48z"/>
		<path class="st4" d="M129.62,753.76c-4.37,0-7.91,3.54-7.91,7.91c0,4.37,3.54,7.91,7.91,7.91c4.36,0,7.91-3.54,7.91-7.91
			C137.52,757.3,133.98,753.76,129.62,753.76z"/>
	</g>
	<g class="st3">
		<rect x="86.2" y="564.2" class="st4" width="67.55" height="67.55"/>
		<path class="st4" d="M147.69,574.4v47.17c0,3.11-2.52,5.63-5.63,5.63H97.03c-3.11,0-5.63-2.53-5.63-5.63V574.4
			c0-3.11,2.52-5.63,5.63-5.63h45.04C145.17,568.77,147.69,571.29,147.69,574.4z"/>
		<path class="st4" d="M107.74,582.17h31.87c3.11,0,5.63,2.52,5.63,5.63v31.36c0,3.11-2.52,5.63-5.63,5.63H99.48
			c-3.11,0-5.63-2.52-5.63-5.63V587.8c0-3.11,2.52-5.63,5.63-5.63h1.27"/>
		<path class="st4" d="M119.55,602.95c2.23,0,4.04,1.8,4.04,4.03c0,2.22-1.8,4.03-4.04,4.03c-2.22,0-4.03-1.81-4.03-4.03
			C115.52,604.76,117.32,602.95,119.55,602.95z"/>
		<path class="st4" d="M100.43,573.54l-0.81-0.96c-1.07-1.26-3.07-1.49-4.5-0.35c-0.1,0.08-0.19,0.16-0.27,0.25
			c-0.09,0.08-0.17,0.18-0.25,0.28c-1.14,1.43-0.91,3.43,0.36,4.5l13.75,11.65c0.4,0.41,1.09,0.37,1.54-0.08l0.95-0.95
			c0.44-0.45,0.48-1.14,0.08-1.54l-5.86-6.91"/>
		<path class="st4" d="M108.66,577.9L108.66,577.9c-0.29,1.21-1.53,1.95-2.73,1.64l-8.9-2.21c-1.2-0.29-1.94-1.52-1.64-2.73
			c0.3-1.2,1.53-1.93,2.73-1.64l8.9,2.2C108.23,575.48,108.96,576.7,108.66,577.9z"/>
		<line class="st4" x1="138.64" y1="579.12" x2="138.64" y2="571.49"/>
		<line class="st4" x1="133.3" y1="579.12" x2="133.3" y2="571.49"/>
		<line class="st4" x1="127.95" y1="579.12" x2="127.95" y2="571.49"/>
		<line class="st4" x1="122.61" y1="579.12" x2="122.61" y2="571.49"/>
		<line class="st4" x1="117.27" y1="579.12" x2="117.27" y2="571.49"/>
		<line class="st4" x1="111.93" y1="579.12" x2="111.93" y2="571.49"/>
	</g>
</g>
<g id="Несущие">
	<polygon class="st5" points="558.1,112.53 558.1,139.37 913.85,139.37 913.85,892.14 814.76,892.14 814.76,932.74 809.26,932.74 
		809.26,949.25 937.24,949.25 937.24,111.85 	"/>
	<polygon class="st5" points="436.31,111.85 436.31,138.68 334.47,138.68 334.47,189.6 84.7,189.6 84.7,892.83 159.01,892.83 
		159.01,932.74 165.2,932.74 165.2,947.19 61.3,947.19 61.3,164.83 308.33,164.83 308.33,111.85 	"/>
	<rect x="391.21" y="929.99" class="st5" width="193.73" height="17.89"/>
	<rect x="396.4" y="893.52" class="st5" width="183.03" height="42.66"/>
</g>
<g id="Лифты_x2C__лестницы">
</g>
<g id="Площади">
	<g>
		<g>
			<path class="st2" d="M468.86,322.58c0-0.16,0.01-0.28,0.04-0.38l5.6-19.6c0.2-0.68,0.65-1.02,1.36-1.02c0.93,0,1.4,0.47,1.4,1.4
				c0,0.13-0.02,0.26-0.05,0.4l-5.11,17.8h6.56v-4.2c0-0.93,0.47-1.4,1.4-1.4s1.4,0.47,1.4,1.4v4.2h2.8c0.93,0,1.4,0.47,1.4,1.4
				s-0.47,1.4-1.4,1.4h-2.8v4.2c0,0.93-0.47,1.4-1.4,1.4s-1.4-0.47-1.4-1.4v-4.2h-8.4C469.33,323.99,468.86,323.52,468.86,322.58z"
				/>
			<path class="st2" d="M492.12,326.79c0.93,0,1.4,0.46,1.4,1.38c0,0.13-0.48,2.11-1.44,5.96c-0.17,0.71-0.62,1.06-1.36,1.06
				c-0.93,0-1.4-0.47-1.4-1.4c0-0.64,0.48-2.62,1.44-5.94C490.96,327.14,491.41,326.79,492.12,326.79z"/>
			<path class="st2" d="M505.62,315.58h-2.8c-0.93,0-1.4-0.47-1.4-1.4s0.47-1.4,1.4-1.4h2.8c1.17,0,2.17-0.41,2.98-1.22
				s1.22-1.81,1.22-2.98c0-1.16-0.41-2.15-1.23-2.97c-0.82-0.82-1.81-1.23-2.97-1.23h-5.6c-0.93,0-1.4-0.47-1.4-1.4
				s0.47-1.4,1.4-1.4h5.6c1.94,0,3.59,0.69,4.95,2.06c1.36,1.37,2.05,3.02,2.05,4.94c0,2.32-0.93,4.19-2.8,5.6
				c1.87,1.41,2.8,3.28,2.8,5.6v2.8c0,1.94-0.69,3.59-2.06,4.95c-1.37,1.37-3.02,2.05-4.94,2.05h-5.6c-0.93,0-1.4-0.47-1.4-1.4
				s0.47-1.4,1.4-1.4h5.6c1.17,0,2.17-0.41,2.98-1.22s1.22-1.81,1.22-2.98v-2.8c0-1.16-0.41-2.15-1.23-2.97
				C507.77,315.99,506.78,315.58,505.62,315.58z"/>
			<path class="st2" d="M525.05,316.98l-1.04,0c-0.94,0-1.4-0.47-1.4-1.4s0.47-1.4,1.4-1.4l1.65,0l2.2-9.8h-9.45
				c-0.93,0-1.4-0.47-1.4-1.4s0.47-1.4,1.4-1.4h11.2c0.92,0,1.39,0.45,1.4,1.36c0,0.08-0.01,0.2-0.04,0.34l-2.42,10.9l1.06,0
				c0.94,0,1.4,0.47,1.4,1.4s-0.47,1.4-1.41,1.4l-1.7,0l-2.53,11.5c-0.17,0.74-0.62,1.1-1.34,1.1c-0.95,0-1.42-0.47-1.42-1.4
				c0-0.14,0.01-0.25,0.03-0.32L525.05,316.98z"/>
		</g>
	</g>
	<g>
		<g>
			<path class="st2" d="M692.77,832.94l-3.22,3.22c-0.27,0.26-0.6,0.4-0.98,0.4c-0.94,0-1.4-0.47-1.4-1.4c0-0.38,0.13-0.71,0.4-0.98
				l5.47-5.47c0.37-0.37,0.74-0.55,1.12-0.55c0.93,0,1.4,0.47,1.4,1.4v25.21c0,0.93-0.47,1.4-1.4,1.4s-1.4-0.47-1.4-1.4V832.94z"/>
			<path class="st2" d="M708.7,843.56l-1.04,0c-0.94,0-1.4-0.47-1.4-1.4c0-0.93,0.47-1.4,1.4-1.4l1.65,0l2.2-9.8h-9.45
				c-0.93,0-1.4-0.47-1.4-1.4s0.47-1.4,1.4-1.4h11.2c0.92,0,1.39,0.45,1.4,1.36c0,0.08-0.01,0.2-0.04,0.34l-2.42,10.91l1.06,0
				c0.94,0,1.4,0.47,1.4,1.4c0,0.93-0.47,1.4-1.41,1.4l-1.7,0l-2.53,11.5c-0.17,0.74-0.62,1.1-1.34,1.1c-0.95,0-1.42-0.47-1.42-1.4
				c0-0.14,0.01-0.25,0.03-0.32L708.7,843.56z"/>
			<path class="st2" d="M719.27,853.36c0.93,0,1.4,0.46,1.4,1.38c0,0.13-0.48,2.12-1.44,5.96c-0.17,0.71-0.62,1.06-1.36,1.06
				c-0.93,0-1.4-0.47-1.4-1.4c0-0.64,0.48-2.62,1.44-5.94C718.11,853.71,718.56,853.36,719.27,853.36z"/>
			<path class="st2" d="M725.76,840.76v-11.2c0-0.93,0.47-1.4,1.4-1.4h9.8c0.93,0,1.4,0.47,1.4,1.4s-0.47,1.4-1.4,1.4h-8.4v8.4h4.2
				c1.94,0,3.59,0.69,4.96,2.06c1.36,1.37,2.05,3.02,2.05,4.94v2.8c0,1.94-0.69,3.59-2.06,4.95c-1.37,1.37-3.02,2.05-4.94,2.05h-5.6
				c-0.93,0-1.4-0.47-1.4-1.4s0.47-1.4,1.4-1.4h5.6c1.17,0,2.17-0.41,2.98-1.22s1.22-1.81,1.22-2.98v-2.8
				c0-1.16-0.41-2.15-1.23-2.97s-1.81-1.23-2.97-1.23h-5.6C726.23,842.16,725.76,841.69,725.76,840.76z"/>
			<path class="st2" d="M744.14,840.76v-11.2c0-0.93,0.47-1.4,1.4-1.4h9.8c0.93,0,1.4,0.47,1.4,1.4s-0.47,1.4-1.4,1.4h-8.4v8.4h4.2
				c1.94,0,3.59,0.69,4.95,2.06s2.05,3.02,2.05,4.94v2.8c0,1.94-0.69,3.59-2.06,4.95c-1.37,1.37-3.02,2.05-4.94,2.05h-5.6
				c-0.93,0-1.4-0.47-1.4-1.4s0.47-1.4,1.4-1.4h5.6c1.17,0,2.17-0.41,2.98-1.22s1.22-1.81,1.22-2.98v-2.8
				c0-1.16-0.41-2.15-1.23-2.97c-0.82-0.82-1.81-1.23-2.97-1.23h-5.6C744.61,842.16,744.14,841.69,744.14,840.76z"/>
		</g>
	</g>
	<g>
		<g>
			<path class="st2" d="M213.78,832.94l-3.22,3.22c-0.27,0.26-0.6,0.4-0.98,0.4c-0.94,0-1.4-0.47-1.4-1.4c0-0.38,0.13-0.71,0.4-0.98
				l5.47-5.47c0.37-0.37,0.74-0.55,1.12-0.55c0.93,0,1.4,0.47,1.4,1.4v25.21c0,0.93-0.47,1.4-1.4,1.4s-1.4-0.47-1.4-1.4V832.94z"/>
			<path class="st2" d="M228.66,828.16c1.94,0,3.59,0.68,4.95,2.05c1.36,1.37,2.05,3.02,2.05,4.95c0,1.33-0.42,2.67-1.27,4.03
				l-8.83,14.17h8.7c0.93,0,1.4,0.47,1.4,1.4s-0.47,1.4-1.4,1.4h-11.2c-0.93,0-1.4-0.47-1.4-1.4c0-0.28,0.08-0.55,0.23-0.81
				l10.27-16.49c0.47-0.75,0.7-1.52,0.7-2.31c0-1.16-0.41-2.15-1.23-2.97c-0.82-0.82-1.81-1.23-2.97-1.23
				c-1.58,0-3.05,1.17-4.39,3.52c-0.25,0.45-0.66,0.68-1.21,0.68c-0.93,0-1.4-0.47-1.4-1.4c0-0.21,0.04-0.4,0.13-0.57
				C223.53,829.83,225.82,828.16,228.66,828.16z"/>
			<path class="st2" d="M243.02,853.36c0.93,0,1.4,0.46,1.4,1.38c0,0.13-0.48,2.12-1.44,5.96c-0.17,0.71-0.62,1.06-1.36,1.06
				c-0.93,0-1.4-0.47-1.4-1.4c0-0.64,0.48-2.62,1.44-5.94C241.86,853.71,242.32,853.36,243.02,853.36z"/>
			<path class="st2" d="M252.38,832.94l-3.22,3.22c-0.27,0.26-0.6,0.4-0.98,0.4c-0.94,0-1.4-0.47-1.4-1.4c0-0.38,0.13-0.71,0.4-0.98
				l5.47-5.47c0.37-0.37,0.74-0.55,1.12-0.55c0.93,0,1.4,0.47,1.4,1.4v25.21c0,0.93-0.47,1.4-1.4,1.4s-1.4-0.47-1.4-1.4V832.94z"/>
			<path class="st2" d="M267.37,856.16c-1.94,0-3.59-0.68-4.95-2.05c-1.37-1.36-2.05-3.02-2.05-4.95v-2.8c0-2.32,0.93-4.19,2.8-5.6
				c-1.87-1.42-2.8-3.28-2.8-5.6c0-1.94,0.68-3.59,2.05-4.95c1.36-1.37,3.02-2.05,4.95-2.05s3.59,0.68,4.95,2.05
				c1.36,1.37,2.05,3.02,2.05,4.95c0,2.32-0.93,4.19-2.8,5.6c1.34,1.02,2.19,2.27,2.55,3.75c0.17,0.75,0.25,2.3,0.25,4.65
				c0,1.94-0.68,3.59-2.05,4.95C270.96,855.48,269.31,856.16,267.37,856.16z M267.37,839.36c1.17,0,2.17-0.41,2.98-1.22
				c0.81-0.81,1.22-1.81,1.22-2.98c0-1.16-0.41-2.15-1.23-2.97c-0.82-0.82-1.81-1.23-2.97-1.23c-1.17,0-2.17,0.41-2.98,1.22
				s-1.22,1.81-1.22,2.98s0.41,2.17,1.22,2.98C265.21,838.95,266.2,839.36,267.37,839.36z M267.37,853.36
				c1.17,0,2.17-0.41,2.98-1.22s1.22-1.81,1.22-2.98v-2.8c0-1.16-0.41-2.15-1.23-2.97c-0.82-0.82-1.81-1.23-2.97-1.23
				c-1.17,0-2.17,0.41-2.98,1.22s-1.22,1.81-1.22,2.98v2.8c0,1.17,0.41,2.17,1.22,2.98S266.2,853.36,267.37,853.36z"/>
		</g>
	</g>
	<g>
		<g>
			<path class="st2" d="M218.24,290.18h-2.8c-0.93,0-1.4-0.47-1.4-1.4s0.47-1.4,1.4-1.4h2.8c1.17,0,2.17-0.41,2.98-1.22
				s1.22-1.81,1.22-2.98c0-1.16-0.41-2.15-1.23-2.97c-0.82-0.82-1.81-1.23-2.97-1.23h-5.6c-0.93,0-1.4-0.47-1.4-1.4
				s0.47-1.4,1.4-1.4h5.6c1.94,0,3.59,0.69,4.95,2.06c1.36,1.37,2.05,3.02,2.05,4.94c0,2.32-0.93,4.19-2.8,5.6
				c1.87,1.41,2.8,3.28,2.8,5.6v2.8c0,1.94-0.69,3.59-2.06,4.95c-1.37,1.37-3.02,2.05-4.94,2.05h-5.6c-0.93,0-1.4-0.47-1.4-1.4
				s0.47-1.4,1.4-1.4h5.6c1.17,0,2.17-0.41,2.98-1.22s1.22-1.81,1.22-2.98v-2.8c0-1.16-0.41-2.15-1.23-2.97
				C220.39,290.59,219.4,290.18,218.24,290.18z"/>
			<path class="st2" d="M231.85,301.39c0.93,0,1.4,0.46,1.4,1.38c0,0.13-0.48,2.11-1.44,5.96c-0.17,0.71-0.62,1.06-1.36,1.06
				c-0.93,0-1.4-0.47-1.4-1.4c0-0.64,0.48-2.62,1.44-5.94C230.69,301.74,231.14,301.39,231.85,301.39z"/>
			<path class="st2" d="M244.82,304.19c-1.94,0-3.59-0.68-4.95-2.05c-1.37-1.36-2.05-3.02-2.05-4.95v-2.8c0-2.32,0.93-4.19,2.8-5.6
				c-1.87-1.41-2.8-3.28-2.8-5.6c0-1.94,0.68-3.59,2.05-4.95c1.36-1.36,3.02-2.05,4.95-2.05s3.59,0.68,4.95,2.05
				c1.36,1.37,2.05,3.02,2.05,4.95c0,2.32-0.93,4.19-2.8,5.6c1.34,1.02,2.19,2.27,2.55,3.76c0.17,0.75,0.25,2.3,0.25,4.65
				c0,1.94-0.68,3.59-2.05,4.95C248.41,303.5,246.76,304.19,244.82,304.19z M244.82,287.38c1.17,0,2.17-0.41,2.98-1.22
				s1.22-1.81,1.22-2.98c0-1.16-0.41-2.15-1.23-2.97c-0.82-0.82-1.81-1.23-2.97-1.23c-1.17,0-2.17,0.41-2.98,1.22
				c-0.81,0.81-1.22,1.81-1.22,2.98c0,1.17,0.41,2.17,1.22,2.98S243.64,287.38,244.82,287.38z M244.82,301.39
				c1.17,0,2.17-0.41,2.98-1.22s1.22-1.81,1.22-2.98v-2.8c0-1.16-0.41-2.15-1.23-2.97c-0.82-0.82-1.81-1.23-2.97-1.23
				c-1.17,0-2.17,0.41-2.98,1.22s-1.22,1.81-1.22,2.98v2.8c0,1.17,0.41,2.17,1.22,2.98S243.64,301.39,244.82,301.39z"/>
			<path class="st2" d="M261.11,304.19c-0.37,0-0.69-0.14-0.98-0.42c-0.28-0.28-0.42-0.61-0.42-0.98c0-0.65,0.23-1.05,0.7-1.21
				c1.02-0.34,1.87-0.73,2.55-1.17c3.01-1.95,4.7-4.43,5.05-7.43h-4.1c-1.94,0-3.59-0.68-4.95-2.05c-1.37-1.37-2.05-3.02-2.05-4.95
				v-2.8c0-1.94,0.68-3.59,2.05-4.95c1.36-1.36,3.02-2.05,4.95-2.05c1.95,0,3.61,0.68,4.96,2.03c1.36,1.35,2.04,3,2.04,4.93v8.44
				c0,4.75-2.21,8.51-6.64,11.27C262.84,303.74,261.78,304.19,261.11,304.19z M268.11,290.18v-7c0-1.16-0.41-2.15-1.23-2.97
				c-0.82-0.82-1.81-1.23-2.97-1.23s-2.15,0.41-2.97,1.23c-0.82,0.82-1.23,1.81-1.23,2.97v2.8c0,1.17,0.41,2.17,1.22,2.98
				c0.81,0.81,1.81,1.22,2.98,1.22H268.11z"/>
		</g>
	</g>
</g>
<g id="Таблички">
</g>
</svg>
